states
version=1
nRows=34
nColumns=17
inDegrees=yes
endheader
time	/jointset/r_shoulder/r_shoulder_elev/value	/jointset/r_shoulder/r_shoulder_elev/speed	/jointset/r_elbow/r_elbow_flex/value	/jointset/r_elbow/r_elbow_flex/speed	/forceset/TRIlong/activation	/forceset/TRIlong/fiber_length	/forceset/TRIlat/activation	/forceset/TRIlat/fiber_length	/forceset/TRImed/activation	/forceset/TRImed/fiber_length	/forceset/BIClong/activation	/forceset/BIClong/fiber_length	/forceset/BICshort/activation	/forceset/BICshort/fiber_length	/forceset/BRA/activation	/forceset/BRA/fiber_length
     14.70400000	      4.51079370	      0.57496392	    113.95934135	     19.08506095	      0.05000000	      0.10000000	      0.05000000	      0.10000000	      0.05000000	      0.10000000	      0.05000000	      0.10000000	      0.05000000	      0.10000000	      0.05000000	      0.10000000
     14.71200000	      4.51523013	      0.53317833	    114.11130456	     18.90285963	      0.05000000	      0.10000000	      0.05000000	      0.10000000	      0.05000000	      0.10000000	      0.05000000	      0.10000000	      0.05000000	      0.10000000	      0.05000000	      0.10000000
     14.72000000	      4.51931122	      0.48639392	    114.26174611	     18.70531421	      0.05000000	      0.10000000	      0.05000000	      0.10000000	      0.05000000	      0.10000000	      0.05000000	      0.10000000	      0.05000000	      0.10000000	      0.05000000	      0.10000000
     14.72800000	      4.52300339	      0.43621448	    114.41056044	     18.49687025	      0.05000000	      0.10000000	      0.05000000	      0.10000000	      0.05000000	      0.10000000	      0.05000000	      0.10000000	      0.05000000	      0.10000000	      0.05000000	      0.10000000
     14.73600000	      4.52628566	      0.38415634	    114.55768117	     18.28287556	      0.05000000	      0.10000000	      0.05000000	      0.10000000	      0.05000000	      0.10000000	      0.05000000	      0.10000000	      0.05000000	      0.10000000	      0.05000000	      0.10000000
     14.74400000	      4.52914832	      0.33149858	    114.70308786	     18.06942301	      0.05000000	      0.10000000	      0.05000000	      0.10000000	      0.05000000	      0.10000000	      0.05000000	      0.10000000	      0.05000000	      0.10000000	      0.05000000	      0.10000000
     14.75200000	      4.53159063	      0.27920161	    114.84681061	     17.86296759	      0.05000000	      0.10000000	      0.05000000	      0.10000000	      0.05000000	      0.10000000	      0.05000000	      0.10000000	      0.05000000	      0.10000000	      0.05000000	      0.10000000
     14.76000000	      4.53361821	      0.22789248	    114.98893093	     17.66983573	      0.05000000	      0.10000000	      0.05000000	      0.10000000	      0.05000000	      0.10000000	      0.05000000	      0.10000000	      0.05000000	      0.10000000	      0.05000000	      0.10000000
     14.76800000	      4.53524044	      0.17789879	    115.12957870	     17.49568319	      0.05000000	      0.10000000	      0.05000000	      0.10000000	      0.05000000	      0.10000000	      0.05000000	      0.10000000	      0.05000000	      0.10000000	      0.05000000	      0.10000000
     14.77600000	      4.53646837	      0.12931976	    115.26892448	     17.34495475	      0.05000000	      0.10000000	      0.05000000	      0.10000000	      0.05000000	      0.10000000	      0.05000000	      0.10000000	      0.05000000	      0.10000000	      0.05000000	      0.10000000
     14.78400000	      4.53731327	      0.08213403	    115.40716812	     17.22046992	      0.05000000	      0.10000000	      0.05000000	      0.10000000	      0.05000000	      0.10000000	      0.05000000	      0.10000000	      0.05000000	      0.10000000	      0.05000000	      0.10000000
     14.79200000	      4.53778619	      0.03633305	    115.54452469	     17.12318076	      0.05000000	      0.10000000	      0.05000000	      0.10000000	      0.05000000	      0.10000000	      0.05000000	      0.10000000	      0.05000000	      0.10000000	      0.05000000	      0.10000000
     14.80000000	      4.53789862	     -0.00795335	    115.68120903	     17.05208465	      0.05000000	      0.10000000	      0.05000000	      0.10000000	      0.05000000	      0.10000000	      0.05000000	      0.10000000	      0.05000000	      0.10000000	      0.05000000	      0.10000000
     14.80800000	      4.53766389	     -0.05037748	    115.81742036	     17.00430042	      0.05000000	      0.10000000	      0.05000000	      0.10000000	      0.05000000	      0.10000000	      0.05000000	      0.10000000	      0.05000000	      0.10000000	      0.05000000	      0.10000000
     14.81600000	      4.53709907	     -0.09036181	    115.95332793	     16.97525080	      0.05000000	      0.10000000	      0.05000000	      0.10000000	      0.05000000	      0.10000000	      0.05000000	      0.10000000	      0.05000000	      0.10000000	      0.05000000	      0.10000000
     14.82400000	      4.53622662	     -0.12714620	    116.08905831	     16.95888809	      0.05000000	      0.10000000	      0.05000000	      0.10000000	      0.05000000	      0.10000000	      0.05000000	      0.10000000	      0.05000000	      0.10000000	      0.05000000	      0.10000000
     14.83200000	      4.53507558	     -0.15986099	    116.22468484	     16.94801499	      0.05000000	      0.10000000	      0.05000000	      0.10000000	      0.05000000	      0.10000000	      0.05000000	      0.10000000	      0.05000000	      0.10000000	      0.05000000	      0.10000000
     14.84000000	      4.53368215	     -0.18758725	    116.36022013	     16.93472807	      0.05000000	      0.10000000	      0.05000000	      0.10000000	      0.05000000	      0.10000000	      0.05000000	      0.10000000	      0.05000000	      0.10000000	      0.05000000	      0.10000000
     14.84800000	      4.53208999	     -0.20938280	    116.49561246	     16.91094354	      0.05000000	      0.10000000	      0.05000000	      0.10000000	      0.05000000	      0.10000000	      0.05000000	      0.10000000	      0.05000000	      0.10000000	      0.05000000	      0.10000000
     14.85600000	      4.53035042	     -0.22427847	    116.63074672	     16.86900338	      0.05000000	      0.10000000	      0.05000000	      0.10000000	      0.05000000	      0.10000000	      0.05000000	      0.10000000	      0.05000000	      0.10000000	      0.05000000	      0.10000000
     14.86400000	      4.52852262	     -0.23126506	    116.76545031	     16.80228830	      0.05000000	      0.10000000	      0.05000000	      0.10000000	      0.05000000	      0.10000000	      0.05000000	      0.10000000	      0.05000000	      0.10000000	      0.05000000	      0.10000000
     14.87200000	      4.52667406	     -0.22929451	    116.89950342	     16.70566596	      0.05000000	      0.10000000	      0.05000000	      0.10000000	      0.05000000	      0.10000000	      0.05000000	      0.10000000	      0.05000000	      0.10000000	      0.05000000	      0.10000000
     14.88000000	      4.52488060	     -0.21731884	    117.03265194	     16.57571720	      0.05000000	      0.10000000	      0.05000000	      0.10000000	      0.05000000	      0.10000000	      0.05000000	      0.10000000	      0.05000000	      0.10000000	      0.05000000	      0.10000000
     14.88800000	      4.52322622	     -0.19437848	    117.16462143	     16.41077323	      0.05000000	      0.10000000	      0.05000000	      0.10000000	      0.05000000	      0.10000000	      0.05000000	      0.10000000	      0.05000000	      0.10000000	      0.05000000	      0.10000000
     14.89600000	      4.52180181	     -0.15972410	    117.29513069	     16.21076750	      0.05000000	      0.10000000	      0.05000000	      0.10000000	      0.05000000	      0.10000000	      0.05000000	      0.10000000	      0.05000000	      0.10000000	      0.05000000	      0.10000000
     14.90400000	      4.52070302	     -0.11293783	    117.42390350	     15.97696417	      0.05000000	      0.10000000	      0.05000000	      0.10000000	      0.05000000	      0.10000000	      0.05000000	      0.10000000	      0.05000000	      0.10000000	      0.05000000	      0.10000000
     14.91200000	      4.52002718	     -0.05402730	    117.55067803	     15.71164985	      0.05000000	      0.10000000	      0.05000000	      0.10000000	      0.05000000	      0.10000000	      0.05000000	      0.10000000	      0.05000000	      0.10000000	      0.05000000	      0.10000000
     14.92000000	      4.51986967	      0.01652248	    117.67521375	     15.41779373	      0.05000000	      0.10000000	      0.05000000	      0.10000000	      0.05000000	      0.10000000	      0.05000000	      0.10000000	      0.05000000	      0.10000000	      0.05000000	      0.10000000
     14.92800000	      4.52032005	      0.09774714	    117.79729545	     15.09870966	      0.05000000	      0.10000000	      0.05000000	      0.10000000	      0.05000000	      0.10000000	      0.05000000	      0.10000000	      0.05000000	      0.10000000	      0.05000000	      0.10000000
     14.93600000	      4.52145838	      0.18824467	    117.91673490	     14.75779514	      0.05000000	      0.10000000	      0.05000000	      0.10000000	      0.05000000	      0.10000000	      0.05000000	      0.10000000	      0.05000000	      0.10000000	      0.05000000	      0.10000000
     14.94400000	      4.52335199	      0.28624199	    118.03337078	     14.39835107	      0.05000000	      0.10000000	      0.05000000	      0.10000000	      0.05000000	      0.10000000	      0.05000000	      0.10000000	      0.05000000	      0.10000000	      0.05000000	      0.10000000
     14.95200000	      4.52605277	      0.38967613	    118.14706745	     14.02350076	      0.05000000	      0.10000000	      0.05000000	      0.10000000	      0.05000000	      0.10000000	      0.05000000	      0.10000000	      0.05000000	      0.10000000	      0.05000000	      0.10000000
     14.96000000	      4.52959530	      0.49629256	    118.25771377	     13.63627105	      0.05000000	      0.10000000	      0.05000000	      0.10000000	      0.05000000	      0.10000000	      0.05000000	      0.10000000	      0.05000000	      0.10000000	      0.05000000	      0.10000000
     14.96800000	      4.53399570	      0.60375250	    118.36522311	     13.23980143	      0.05000000	      0.10000000	      0.05000000	      0.10000000	      0.05000000	      0.10000000	      0.05000000	      0.10000000	      0.05000000	      0.10000000	      0.05000000	      0.10000000
